{
    "asset" : {
        "generator" : "Khronos glTF Blender I/O v1.8.19",
        "version" : "2.0"
    },
    "scene" : 0,
    "scenes" : [
        {
            "name" : "Scene",
            "nodes" : [
                0
            ]
        }
    ],
    "nodes" : [
        {
            "mesh" : 0,
            "name" : "Layer_1",
            "scale" : [
                2.92720365524292,
                2.92720365524292,
                2.92720365524292
            ]
        }
    ],
    "materials" : [
        {
            "doubleSided" : true,
            "name" : "Material.001",
            "pbrMetallicRoughness" : {
                "baseColorFactor" : [
                    0.007498487830162048,
                    0.4286903142929077,
                    0.30946892499923706,
                    1
                ],
                "metallicFactor" : 0,
                "roughnessFactor" : 0
            }
        }
    ],
    "meshes" : [
        {
            "name" : "Mesh",
            "primitives" : [
                {
                    "attributes" : {
                        "POSITION" : 0,
                        "NORMAL" : 1
                    },
                    "indices" : 2,
                    "material" : 0
                }
            ]
        }
    ],
    "accessors" : [
        {
            "bufferView" : 0,
            "componentType" : 5126,
            "count" : 6650,
            "max" : [
                0.29977020621299744,
                0.2157330960035324,
                0.10999999940395355
            ],
            "min" : [
                -0.2998752295970917,
                -0.21592766046524048,
                -9.429991898457502e-09
            ],
            "type" : "VEC3"
        },
        {
            "bufferView" : 1,
            "componentType" : 5126,
            "count" : 6650,
            "type" : "VEC3"
        },
        {
            "bufferView" : 2,
            "componentType" : 5123,
            "count" : 13092,
            "type" : "SCALAR"
        }
    ],
    "bufferViews" : [
        {
            "buffer" : 0,
            "byteLength" : 79800,
            "byteOffset" : 0
        },
        {
            "buffer" : 0,
            "byteLength" : 79800,
            "byteOffset" : 79800
        },
        {
            "buffer" : 0,
            "byteLength" : 26184,
            "byteOffset" : 159600
        }
    ],
    "buffers" : [
        {
            "byteLength" : 185784,
            "uri" : "data:application/octet-stream;base64,"
        }
    ]
}
