{
    "asset" : {
        "generator" : "Khronos glTF Blender I/O v1.4.40",
        "version" : "2.0"
    },
    "extensionsUsed" : [
        "KHR_lights_punctual"
    ],
    "extensionsRequired" : [
        "KHR_lights_punctual"
    ],
    "extensions" : {
        "KHR_lights_punctual" : {
            "lights" : [
                {
                    "color" : [
                        1,
                        1,
                        1
                    ],
                    "intensity" : 100,
                    "type" : "point",
                    "name" : "Point"
                }
            ]
        }
    },
    "scene" : 0,
    "scenes" : [
        {
            "name" : "Scene",
            "nodes" : [
                0,
                2,
                3,
                4
            ]
        }
    ],
    "nodes" : [
        {
            "mesh" : 0,
            "name" : "Text",
            "translation" : [
                -0.9291123151779175,
                0,
                0.1276979148387909
            ]
        },
        {
            "extensions" : {
                "KHR_lights_punctual" : {
                    "light" : 0
                }
            },
            "name" : "Point_Orientation",
            "rotation" : [
                -0.7071067690849304,
                0,
                0,
                0.7071067690849304
            ]
        },
        {
            "children" : [
                1
            ],
            "name" : "Point",
            "translation" : [
                0.9009124040603638,
                1.152187466621399,
                -0.9621989727020264
            ]
        },
        {
            "mesh" : 1,
            "name" : "Text.001",
            "translation" : [
                -0.9291123151779175,
                0,
                0.1276979148387909
            ]
        },
        {
            "name" : "Point.001",
            "rotation" : [
                0.25282421708106995,
                0,
                0,
                0.9675122499465942
            ],
            "translation" : [
                -0.09063267707824707,
                1.0268197059631348,
                0.7701554894447327
            ]
        }
    ],
    "materials" : [
        {
            "doubleSided" : true,
            "name" : "Material.001",
            "pbrMetallicRoughness" : {
                "baseColorFactor" : [
                    1,
                    0.05163652449846268,
                    0,
                    1
                ],
                "metallicFactor" : 0,
                "roughnessFactor" : 0.11818182468414307
            }
        },
        {
            "doubleSided" : true,
            "name" : "Material.002",
            "pbrMetallicRoughness" : {
                "baseColorFactor" : [
                    0,
                    0,
                    0,
                    1
                ],
                "metallicFactor" : 0,
                "roughnessFactor" : 0.11818182468414307
            }
        }
    ],
    "meshes" : [
        {
            "name" : "Text",
            "primitives" : [
                {
                    "attributes" : {
                        "POSITION" : 0,
                        "NORMAL" : 1,
                        "TEXCOORD_0" : 2
                    },
                    "indices" : 3,
                    "material" : 0
                }
            ]
        },
        {
            "name" : "Text.001",
            "primitives" : [
                {
                    "attributes" : {
                        "POSITION" : 4,
                        "NORMAL" : 5,
                        "TEXCOORD_0" : 6
                    },
                    "indices" : 7,
                    "material" : 1
                }
            ]
        }
    ],
    "accessors" : [
        {
            "bufferView" : 0,
            "componentType" : 5126,
            "count" : 4809,
            "max" : [
                1.8849177360534668,
                0.34117960929870605,
                0.03179532662034035
            ],
            "min" : [
                0.020938294008374214,
                0,
                -0.545558750629425
            ],
            "type" : "VEC3"
        },
        {
            "bufferView" : 1,
            "componentType" : 5126,
            "count" : 4809,
            "type" : "VEC3"
        },
        {
            "bufferView" : 2,
            "componentType" : 5126,
            "count" : 4809,
            "type" : "VEC2"
        },
        {
            "bufferView" : 3,
            "componentType" : 5123,
            "count" : 26772,
            "type" : "SCALAR"
        },
        {
            "bufferView" : 4,
            "componentType" : 5126,
            "count" : 4697,
            "max" : [
                1.8984569311141968,
                0.3393581211566925,
                0.045391447842121124
            ],
            "min" : [
                0.007283627986907959,
                0.0018214952433481812,
                -0.5591886639595032
            ],
            "type" : "VEC3"
        },
        {
            "bufferView" : 5,
            "componentType" : 5126,
            "count" : 4697,
            "type" : "VEC3"
        },
        {
            "bufferView" : 6,
            "componentType" : 5126,
            "count" : 4697,
            "type" : "VEC2"
        },
        {
            "bufferView" : 7,
            "componentType" : 5123,
            "count" : 26772,
            "type" : "SCALAR"
        }
    ],
    "bufferViews" : [
        {
            "buffer" : 0,
            "byteLength" : 57708,
            "byteOffset" : 0
        },
        {
            "buffer" : 0,
            "byteLength" : 57708,
            "byteOffset" : 57708
        },
        {
            "buffer" : 0,
            "byteLength" : 38472,
            "byteOffset" : 115416
        },
        {
            "buffer" : 0,
            "byteLength" : 53544,
            "byteOffset" : 153888
        },
        {
            "buffer" : 0,
            "byteLength" : 56364,
            "byteOffset" : 207432
        },
        {
            "buffer" : 0,
            "byteLength" : 56364,
            "byteOffset" : 263796
        },
        {
            "buffer" : 0,
            "byteLength" : 37576,
            "byteOffset" : 320160
        },
        {
            "buffer" : 0,
            "byteLength" : 53544,
            "byteOffset" : 357736
        }
    ],
    "buffers" : [
        {
            "byteLength" : 411280,
            "uri" : "data:application/octet-stream;base64,"
        }
    ]
}
