{
    "asset" : {
        "generator" : "Khronos glTF Blender I/O v1.4.40",
        "version" : "2.0"
    },
    "scene" : 0,
    "scenes" : [
        {
            "name" : "Scene",
            "nodes" : [
                0
            ]
        }
    ],
    "nodes" : [
        {
            "mesh" : 0,
            "name" : "Text",
            "translation" : [
                -0.9291123151779175,
                0,
                0.1276979148387909
            ]
        }
    ],
    "meshes" : [
        {
            "name" : "Text",
            "primitives" : [
                {
                    "attributes" : {
                        "POSITION" : 0,
                        "NORMAL" : 1,
                        "TEXCOORD_0" : 2
                    },
                    "indices" : 3
                }
            ]
        }
    ],
    "accessors" : [
        {
            "bufferView" : 0,
            "componentType" : 5126,
            "count" : 718,
            "max" : [
                1.8849177360534668,
                0.34117960929870605,
                0.03179532662034035
            ],
            "min" : [
                0.020938294008374214,
                0,
                -0.545558750629425
            ],
            "type" : "VEC3"
        },
        {
            "bufferView" : 1,
            "componentType" : 5126,
            "count" : 718,
            "type" : "VEC3"
        },
        {
            "bufferView" : 2,
            "componentType" : 5126,
            "count" : 718,
            "type" : "VEC2"
        },
        {
            "bufferView" : 3,
            "componentType" : 5123,
            "count" : 4284,
            "type" : "SCALAR"
        }
    ],
    "bufferViews" : [
        {
            "buffer" : 0,
            "byteLength" : 8616,
            "byteOffset" : 0
        },
        {
            "buffer" : 0,
            "byteLength" : 8616,
            "byteOffset" : 8616
        },
        {
            "buffer" : 0,
            "byteLength" : 5744,
            "byteOffset" : 17232
        },
        {
            "buffer" : 0,
            "byteLength" : 8568,
            "byteOffset" : 22976
        }
    ],
    "buffers" : [
        {
            "byteLength" : 31544,
            "uri" : "data:application/octet-stream;base64,"
        }
    ]
}
