{
    "asset" : {
        "generator" : "Khronos glTF Blender I/O v1.4.40",
        "version" : "2.0"
    },
    "extensionsUsed" : [
        "KHR_lights_punctual"
    ],
    "extensionsRequired" : [
        "KHR_lights_punctual"
    ],
    "extensions" : {
        "KHR_lights_punctual" : {
            "lights" : [
                {
                    "color" : [
                        1,
                        1,
                        1
                    ],
                    "intensity" : 100,
                    "type" : "point",
                    "name" : "Point"
                },
                {
                    "color" : [
                        1,
                        1,
                        1
                    ],
                    "intensity" : 20,
                    "type" : "point",
                    "name" : "Point.001"
                },
                {
                    "color" : [
                        1,
                        1,
                        1
                    ],
                    "intensity" : 20,
                    "type" : "point",
                    "name" : "Point.002"
                },
                {
                    "color" : [
                        1,
                        1,
                        1
                    ],
                    "intensity" : 20,
                    "type" : "point",
                    "name" : "Point.003"
                }
            ]
        }
    },
    "scene" : 0,
    "scenes" : [
        {
            "name" : "Scene",
            "nodes" : [
                0,
                2,
                4,
                6,
                8
            ]
        }
    ],
    "nodes" : [
        {
            "mesh" : 0,
            "name" : "Text",
            "translation" : [
                -0.9291123151779175,
                0,
                0.1276979148387909
            ]
        },
        {
            "extensions" : {
                "KHR_lights_punctual" : {
                    "light" : 0
                }
            },
            "name" : "Point_Orientation",
            "rotation" : [
                -0.7071067690849304,
                0,
                0,
                0.7071067690849304
            ]
        },
        {
            "children" : [
                1
            ],
            "name" : "Point",
            "translation" : [
                0.558809757232666,
                1.152187466621399,
                -0.6127392649650574
            ]
        },
        {
            "extensions" : {
                "KHR_lights_punctual" : {
                    "light" : 1
                }
            },
            "name" : "Point.001_Orientation",
            "rotation" : [
                -0.7071067690849304,
                0,
                0,
                0.7071067690849304
            ]
        },
        {
            "children" : [
                3
            ],
            "name" : "Point.001",
            "rotation" : [
                0.25282421708106995,
                0,
                0,
                0.9675122499465942
            ],
            "translation" : [
                0.6818571090698242,
                1.0268197059631348,
                0.30666157603263855
            ]
        },
        {
            "extensions" : {
                "KHR_lights_punctual" : {
                    "light" : 2
                }
            },
            "name" : "Point.002_Orientation",
            "rotation" : [
                -0.7071067690849304,
                0,
                0,
                0.7071067690849304
            ]
        },
        {
            "children" : [
                5
            ],
            "name" : "Point.002",
            "rotation" : [
                0.25282421708106995,
                0,
                0,
                0.9675122499465942
            ],
            "translation" : [
                -0.21570253372192383,
                1.0268197059631348,
                0.3912675976753235
            ]
        },
        {
            "extensions" : {
                "KHR_lights_punctual" : {
                    "light" : 3
                }
            },
            "name" : "Point.003_Orientation",
            "rotation" : [
                -0.7071067690849304,
                0,
                0,
                0.7071067690849304
            ]
        },
        {
            "children" : [
                7
            ],
            "name" : "Point.003",
            "rotation" : [
                0.25282421708106995,
                0,
                0,
                0.9675122499465942
            ],
            "translation" : [
                -0.9183003902435303,
                1.0268197059631348,
                0.42069578170776367
            ]
        }
    ],
    "materials" : [
        {
            "doubleSided" : true,
            "name" : "Material.001",
            "pbrMetallicRoughness" : {
                "baseColorFactor" : [
                    1,
                    0.05163652449846268,
                    0,
                    1
                ],
                "metallicFactor" : 0,
                "roughnessFactor" : 0.11818182468414307
            }
        },
        {
            "doubleSided" : true,
            "name" : "Material.002",
            "pbrMetallicRoughness" : {
                "baseColorFactor" : [
                    0,
                    0,
                    0,
                    1
                ],
                "metallicFactor" : 0,
                "roughnessFactor" : 0.11818182468414307
            }
        }
    ],
    "meshes" : [
        {
            "name" : "Text",
            "primitives" : [
                {
                    "attributes" : {
                        "POSITION" : 0,
                        "NORMAL" : 1,
                        "TEXCOORD_0" : 2
                    },
                    "indices" : 3,
                    "material" : 0
                },
                {
                    "attributes" : {
                        "POSITION" : 4,
                        "NORMAL" : 5,
                        "TEXCOORD_0" : 6
                    },
                    "indices" : 7,
                    "material" : 1
                }
            ]
        }
    ],
    "accessors" : [
        {
            "bufferView" : 0,
            "componentType" : 5126,
            "count" : 2212,
            "max" : [
                1.878732442855835,
                0.34117960929870605,
                0.025609198957681656
            ],
            "min" : [
                0.027134571224451065,
                0,
                -0.5393643379211426
            ],
            "type" : "VEC3"
        },
        {
            "bufferView" : 1,
            "componentType" : 5126,
            "count" : 2212,
            "type" : "VEC3"
        },
        {
            "bufferView" : 2,
            "componentType" : 5126,
            "count" : 2212,
            "type" : "VEC2"
        },
        {
            "bufferView" : 3,
            "componentType" : 5123,
            "count" : 10920,
            "type" : "SCALAR"
        },
        {
            "bufferView" : 4,
            "componentType" : 5126,
            "count" : 3337,
            "max" : [
                1.8849177360534668,
                0.33831486105918884,
                0.03179532662034035
            ],
            "min" : [
                0.020938294008374214,
                0.0028647426515817642,
                -0.545558750629425
            ],
            "type" : "VEC3"
        },
        {
            "bufferView" : 5,
            "componentType" : 5126,
            "count" : 3337,
            "type" : "VEC3"
        },
        {
            "bufferView" : 6,
            "componentType" : 5126,
            "count" : 3337,
            "type" : "VEC2"
        },
        {
            "bufferView" : 7,
            "componentType" : 5123,
            "count" : 15852,
            "type" : "SCALAR"
        }
    ],
    "bufferViews" : [
        {
            "buffer" : 0,
            "byteLength" : 26544,
            "byteOffset" : 0
        },
        {
            "buffer" : 0,
            "byteLength" : 26544,
            "byteOffset" : 26544
        },
        {
            "buffer" : 0,
            "byteLength" : 17696,
            "byteOffset" : 53088
        },
        {
            "buffer" : 0,
            "byteLength" : 21840,
            "byteOffset" : 70784
        },
        {
            "buffer" : 0,
            "byteLength" : 40044,
            "byteOffset" : 92624
        },
        {
            "buffer" : 0,
            "byteLength" : 40044,
            "byteOffset" : 132668
        },
        {
            "buffer" : 0,
            "byteLength" : 26696,
            "byteOffset" : 172712
        },
        {
            "buffer" : 0,
            "byteLength" : 31704,
            "byteOffset" : 199408
        }
    ],
    "buffers" : [
        {
            "byteLength" : 231112,
            "uri" : "data:application/octet-stream;base64,"
        }
    ]
}
